<svg width="24" height="24" viewBox="0 0 24 24" fill="none" xmlns="http://www.w3.org/2000/svg">
<path d="M23.3998 8.25624C23.3278 5.06423 20.5438 4.45223 20.5438 4.45223C20.5438 4.45223 18.3718 4.44023 15.5518 4.41623L17.6038 2.43623C17.6038 2.43623 17.9278 2.02823 17.3758 1.57223C16.8238 1.11623 16.7878 1.32023 16.5958 1.44023C16.4278 1.56023 13.9678 3.97223 13.5358 4.40423C12.4198 4.40423 11.2558 4.39223 10.1278 4.39223H10.5238C10.5238 4.39223 7.58379 1.48823 7.39178 1.35623C7.19978 1.22423 7.17579 1.03223 6.61178 1.48823C6.05978 1.94423 6.38379 2.35223 6.38379 2.35223L8.48379 4.39223C6.20378 4.39223 4.23579 4.40423 3.32379 4.44023C0.371785 5.29223 0.599785 8.25624 0.599785 8.25624C0.599785 8.25624 0.635785 14.6162 0.599785 17.8322C0.923785 21.0482 3.39579 21.5642 3.39579 21.5642C3.39579 21.5642 4.37978 21.5882 5.11178 21.5882C5.18378 21.7922 5.24379 22.8002 6.37179 22.8002C7.48779 22.8002 7.63178 21.5882 7.63178 21.5882C7.63178 21.5882 15.8518 21.5522 16.5358 21.5522C16.5718 21.9002 16.7398 22.8242 17.8678 22.8122C18.9838 22.7882 19.0678 21.4802 19.0678 21.4802C19.0678 21.4802 19.4518 21.4442 20.5918 21.4802C23.2558 20.9882 23.4118 17.8682 23.4118 17.8682C23.4118 17.8682 23.3638 11.4482 23.3998 8.25624ZM21.1078 18.4322C21.1078 18.9362 20.7118 19.3442 20.2198 19.3442H4.01978C3.52779 19.3442 3.13179 18.9362 3.13179 18.4322V7.69223C3.13179 7.18823 3.52779 6.78023 4.01978 6.78023H20.2198C20.7118 6.78023 21.1078 7.18823 21.1078 7.69223V18.4322Z" fill="#71798A"/>
<path d="M9.58822 9.81592L4.82422 10.7279L5.23222 12.5159L9.94822 11.6039L9.58822 9.81592ZM12.1562 14.5559C10.9922 17.0519 9.94822 15.1679 9.94822 15.1679L9.16822 15.6719C9.16822 15.6719 10.7042 17.7719 12.1682 16.1759C13.8962 17.7719 15.2162 15.6599 15.2162 15.6599L14.5082 15.2039C14.5082 15.1919 13.2722 16.9799 12.1562 14.5559ZM14.5082 11.6039L19.2362 12.5159L19.6322 10.7279L14.8802 9.81592L14.5082 11.6039Z" fill="#71798A"/>
</svg>
