<svg width="20" height="24" viewBox="0 0 20 24" fill="none" xmlns="http://www.w3.org/2000/svg">
<path d="M19.9711 9.93516C18.0023 9.93516 16.0875 9.29531 14.5125 8.11172V16.3688C14.5125 20.5852 11.2641 24 7.25625 24C3.24844 24 0 20.5852 0 16.3688C0 12.1523 3.24844 8.7375 7.25625 8.7375C7.65703 8.7375 8.04609 8.77266 8.42578 8.83828V13.2117C8.0625 13.0688 7.67578 12.9961 7.28672 12.9961C5.49844 12.9961 4.04766 14.5195 4.04766 16.4016C4.04766 18.2812 5.49844 19.807 7.28672 19.807C9.07266 19.807 10.5234 18.2812 10.5234 16.4016V0H14.5711C14.5711 3.15234 17.0016 5.70703 19.9992 5.70703V9.93281L19.9711 9.93516Z" fill="#71798A"/>
</svg>
