<svg width="22" height="18" viewBox="0 0 22 18" fill="none" xmlns="http://www.w3.org/2000/svg">
<path d="M14.5681 5.63771C14.8028 5.63771 15.0343 5.65488 15.2636 5.6798C14.639 2.80144 11.5286 0.662354 7.97857 0.662354C4.00936 0.662354 0.757812 3.33968 0.757812 6.73909C0.757812 8.70101 1.83981 10.3124 3.64723 11.5622L2.92515 13.7121L5.4491 12.4592C6.35281 12.6359 7.07707 12.818 7.97857 12.818C8.20505 12.818 8.4293 12.807 8.65247 12.7893C8.51125 12.312 8.4293 11.8114 8.4293 11.2925C8.42932 8.17108 11.1382 5.63771 14.5681 5.63771ZM10.6864 3.70018C11.2301 3.70018 11.59 4.05457 11.59 4.59226C11.59 5.12772 11.2301 5.48654 10.6864 5.48654C10.1448 5.48654 9.60213 5.12772 9.60213 4.59226C9.60213 4.05457 10.1448 3.70018 10.6864 3.70018ZM5.63294 5.48651C5.09136 5.48651 4.54537 5.12769 4.54537 4.59223C4.54537 4.05454 5.09136 3.70016 5.63294 3.70016C6.17392 3.70016 6.53442 4.05454 6.53442 4.59223C6.53442 5.12772 6.17392 5.48651 5.63294 5.48651ZM21.1587 11.2067C21.1587 8.34993 18.2698 6.02145 15.0255 6.02145C11.59 6.02145 8.88449 8.34993 8.88449 11.2067C8.88449 14.0676 11.59 16.3911 15.0255 16.3911C15.7442 16.3911 16.4696 16.2127 17.1917 16.0334L19.1725 17.1065L18.6292 15.3212C20.0789 14.2448 21.1587 12.818 21.1587 11.2067ZM13.0342 10.3124C12.6749 10.3124 12.3121 9.95855 12.3121 9.5975C12.3121 9.24146 12.6749 8.88319 13.0342 8.88319C13.5802 8.88319 13.9379 9.24146 13.9379 9.5975C13.9379 9.95855 13.5802 10.3124 13.0342 10.3124ZM17.0056 10.3124C16.6491 10.3124 16.2886 9.95855 16.2886 9.5975C16.2886 9.24146 16.6491 8.88319 17.0056 8.88319C17.5472 8.88319 17.9093 9.24146 17.9093 9.5975C17.9093 9.95855 17.5472 10.3124 17.0056 10.3124Z" fill="#71798A"/>
</svg>
