<svg width="24" height="18" viewBox="0 0 24 18" fill="none" xmlns="http://www.w3.org/2000/svg">
<path d="M23.4941 3.20523C23.3551 2.70699 23.0898 2.25304 22.7241 1.88727C22.3583 1.5215 21.9044 1.25628 21.4061 1.11722C19.5361 0.616225 12.0101 0.616225 12.0101 0.616225C12.0101 0.616225 4.50312 0.606225 2.61412 1.11722C2.11588 1.25628 1.66194 1.5215 1.29617 1.88727C0.930402 2.25304 0.665173 2.70699 0.526122 3.20523C0.171643 5.11974 -0.00311721 7.06319 0.00412224 9.01023C-0.00174863 10.9499 0.173006 12.8859 0.526122 14.7932C0.665173 15.2915 0.930402 15.7454 1.29617 16.1112C1.66194 16.4769 2.11588 16.7422 2.61412 16.8812C4.48212 17.3832 12.0101 17.3832 12.0101 17.3832C12.0101 17.3832 19.5161 17.3832 21.4061 16.8812C21.9044 16.7422 22.3583 16.4769 22.7241 16.1112C23.0898 15.7454 23.3551 15.2915 23.4941 14.7932C23.8399 12.8852 24.0073 10.9492 23.9941 9.01023C24.0086 7.06388 23.8412 5.12043 23.4941 3.20523ZM9.60812 12.6012V5.40823L15.8721 9.01023L9.60812 12.6012Z" fill="#71798A"/>
</svg>
