<svg width="31" height="26" viewBox="0 0 31 26" fill="none" xmlns="http://www.w3.org/2000/svg">
<path d="M13.9988 9.76004C14.2296 8.90802 13.658 8.36662 12.8124 7.38733C12.903 7.29674 12.8771 7.32262 12.9677 7.23203C14.001 7.99992 14.4173 8.41838 15.3405 8.41838C16.2551 8.41838 16.665 8.01071 17.7133 7.23203C17.8039 7.32262 17.778 7.29674 17.8686 7.38733C17.4631 7.93306 16.6758 8.72468 16.6758 9.76436C16.6758 10.6789 17.1892 11.3001 17.8686 12.1327C17.778 12.2233 17.8039 12.1975 17.7133 12.2881C16.9023 11.6215 16.2487 11.0995 15.5152 11.0995C14.9544 11.0995 14.3202 11.4231 13.4272 12.2622C12.1308 13.4766 11.7856 14.6629 11.7856 15.7867C11.7856 17.467 12.7736 18.5951 13.9772 19.6391C16.5765 21.891 22.2756 25.1179 25.4918 25.1179C28.2507 25.1179 29.7801 23.882 30.3108 23.3513C30.5545 23.1076 30.41 22.8725 30.2763 22.674L22.6121 11.2786C22.3209 14.2552 19.8791 15.1633 19.4886 16.6021C19.3074 17.2664 19.7798 17.8035 20.414 18.4528C20.3428 18.524 20.3622 18.5045 20.2932 18.5736C19.5382 17.9653 19.1607 17.6482 18.4424 17.6482C17.7241 17.6482 17.338 17.9631 16.5916 18.5736C16.5205 18.5024 16.5399 18.5218 16.4708 18.4528C17.0964 17.6914 17.3962 17.3203 17.3962 16.6021C17.3962 15.8816 17.0489 15.4438 16.4708 14.7514C16.542 14.6802 16.5226 14.6996 16.5916 14.6306C17.269 15.1331 18.3518 16.4446 20.2026 14.5917C21.3998 13.3946 22.2777 11.0909 20.2156 7.7152L15.7159 1.02848C15.5843 0.832193 15.2952 0.83435 15.1658 1.02848L0.0920156 23.6576C-0.0891804 23.9445 0.0100459 24.1365 0.277526 24.1365C0.450093 24.1365 0.605404 24.0524 0.747773 23.8582C3.52827 20.0727 6.66037 19.0222 9.24673 19.0222C10.0039 19.0222 10.7157 19.1128 11.3585 19.2509C9.374 14.225 13.438 11.8265 13.9988 9.7622V9.76004Z" fill="white"/>
</svg>
