<svg width="25" height="25" viewBox="0 0 25 25" fill="none" xmlns="http://www.w3.org/2000/svg">
<g clip-path="url(#clip0_1971_2376)">
<g clip-path="url(#clip1_1971_2376)">
<path d="M19.6014 2.49975C19.7291 2.62743 19.8304 2.77903 19.8996 2.94588C19.9687 3.11272 20.0043 3.29155 20.0043 3.47215C20.0043 3.65275 19.9687 3.83158 19.8996 3.99842C19.8304 4.16527 19.7291 4.31686 19.6014 4.44455L18.3441 5.70075H19.6311C20.1729 5.70075 20.7094 5.80748 21.2099 6.01485C21.7105 6.22222 22.1653 6.52617 22.5483 6.90932C22.9314 7.29248 23.2352 7.74735 23.4424 8.24794C23.6497 8.74854 23.7562 9.28506 23.7561 9.82685V18.0769C23.7561 19.1709 23.3215 20.2201 22.5479 20.9937C21.7743 21.7673 20.7251 22.2019 19.6311 22.2019H5.8811C4.78709 22.2019 3.73788 21.7673 2.96429 20.9937C2.1907 20.2201 1.7561 19.1709 1.7561 18.0769V9.82685C1.7561 8.73283 2.1907 7.68362 2.96429 6.91004C3.73788 6.13645 4.78709 5.70185 5.8811 5.70185H7.1637L5.9086 4.44565C5.77724 4.31885 5.67245 4.16715 5.60034 3.99942C5.52823 3.83168 5.49025 3.65127 5.48861 3.4687C5.48697 3.28612 5.52171 3.10506 5.5908 2.93605C5.65989 2.76705 5.76194 2.6135 5.89101 2.48436C6.02007 2.35522 6.17357 2.25308 6.34253 2.1839C6.51149 2.11471 6.69254 2.07987 6.87511 2.08141C7.05768 2.08294 7.23812 2.12082 7.4059 2.19284C7.57367 2.26485 7.72543 2.36956 7.8523 2.50085L10.7695 5.41805C10.8564 5.50495 10.929 5.59955 10.9873 5.70075H14.5216C14.5799 5.59955 14.6536 5.50275 14.7405 5.41695L17.6566 2.49975C17.7843 2.37203 17.9359 2.27072 18.1027 2.20159C18.2696 2.13247 18.4484 2.09689 18.629 2.09689C18.8096 2.09689 18.9884 2.13247 19.1553 2.20159C19.3221 2.27072 19.4737 2.37203 19.6014 2.49975ZM19.6311 8.46175H5.8811C5.53405 8.46162 5.19979 8.59274 4.94538 8.82879C4.69096 9.06484 4.53522 9.38836 4.5094 9.73445L4.5061 9.83785V18.0879C4.5061 18.8128 5.0671 19.4068 5.7788 19.4585L5.8811 19.4629H19.6311C19.9782 19.463 20.3124 19.3319 20.5668 19.0958C20.8212 18.8598 20.977 18.5362 21.0028 18.1902L21.0061 18.0879V9.83785C21.0061 9.07885 20.3901 8.46285 19.6311 8.46285V8.46175ZM8.6311 11.2118C9.3901 11.2118 10.0061 11.8278 10.0061 12.5868V13.9618C10.0061 14.3264 9.86124 14.6762 9.60338 14.934C9.34551 15.1919 8.99578 15.3368 8.6311 15.3368C8.26643 15.3368 7.91669 15.1919 7.65883 14.934C7.40097 14.6762 7.2561 14.3264 7.2561 13.9618V12.5868C7.2561 11.8278 7.8721 11.2118 8.6311 11.2118ZM16.8811 11.2118C17.6401 11.2118 18.2561 11.8278 18.2561 12.5868V13.9618C18.2561 14.3264 18.1112 14.6762 17.8534 14.934C17.5955 15.1919 17.2458 15.3368 16.8811 15.3368C16.5164 15.3368 16.1667 15.1919 15.9088 14.934C15.651 14.6762 15.5061 14.3264 15.5061 13.9618V12.5868C15.5061 11.8278 16.1221 11.2118 16.8811 11.2118Z" fill="#E5E5E5"/>
</g>
</g>
<defs>
<clipPath id="clip0_1971_2376">
<rect width="24" height="24" fill="white" transform="translate(0.756104 0.141602)"/>
</clipPath>
<clipPath id="clip1_1971_2376">
<rect width="24" height="24" fill="white" transform="translate(0.756104 0.141602)"/>
</clipPath>
</defs>
</svg>
