<svg width="25" height="25" viewBox="0 0 25 25" fill="none" xmlns="http://www.w3.org/2000/svg">
<g clip-path="url(#clip0_1971_2388)">
<path d="M17.8286 0.141602H13.7839V16.4894C13.7839 18.4373 12.2283 20.0373 10.2924 20.0373C8.35644 20.0373 6.80079 18.4373 6.80079 16.4894C6.80079 14.5764 8.32187 13.0111 10.1887 12.9416V8.83727C6.07482 8.9068 2.7561 12.2807 2.7561 16.4894C2.7561 20.7329 6.14396 24.1416 10.327 24.1416C14.5099 24.1416 17.8977 20.6981 17.8977 16.4894V8.1068C19.4188 9.21987 21.2856 9.88074 23.2561 9.91553V5.81117C20.214 5.70682 17.8286 3.20247 17.8286 0.141602Z" fill="#E5E5E5"/>
</g>
<defs>
<clipPath id="clip0_1971_2388">
<rect width="24" height="24" fill="white" transform="translate(0.756104 0.141602)"/>
</clipPath>
</defs>
</svg>
