<svg width="25" height="22" viewBox="0 0 25 22" fill="none" xmlns="http://www.w3.org/2000/svg">
<path d="M17.2476 6.63174C17.7019 6.63174 18.1456 6.66949 18.5834 6.72346C17.7919 3.24779 14.1414 0.618774 9.75164 0.618774C4.78303 0.618774 0.756104 3.98442 0.756104 8.13499C0.756104 10.528 2.1025 12.6511 4.19085 14.0248L3.00491 16.403L6.2356 15.0154C6.92838 15.2621 7.64827 15.4653 8.41718 15.5598C8.31211 15.1012 8.2524 14.6309 8.2524 14.1483C8.2524 10.0036 12.2866 6.63174 17.2476 6.63174ZM12.7501 4.00085C13.3709 4.00085 13.8744 4.50589 13.8744 5.12843C13.8744 5.75117 13.371 6.25586 12.7501 6.25586C12.1289 6.25586 11.6257 5.75117 11.6257 5.12843C11.6257 4.50584 12.1289 4.00085 12.7501 4.00085ZM6.75306 6.25586C6.13214 6.25586 5.62865 5.75117 5.62865 5.12843C5.62865 4.50589 6.13219 4.00085 6.75306 4.00085C7.37392 4.00085 7.87751 4.50589 7.87751 5.12843C7.87746 5.75117 7.37387 6.25586 6.75306 6.25586Z" fill="#E5E5E5"/>
<path d="M24.7438 14.1482C24.7438 10.8273 21.3868 8.13499 17.2476 8.13499C13.1082 8.13499 9.75164 10.8273 9.75164 14.1482C9.75164 17.4689 13.1082 20.1612 17.2476 20.1612C17.9283 20.1612 18.5758 20.065 19.2041 19.9284L23.2446 21.6644L21.8472 18.8641C23.5984 17.7634 24.7438 16.0709 24.7438 14.1482ZM14.9988 13.7723C14.3779 13.7723 13.8744 13.2675 13.8744 12.6446C13.8744 12.0221 14.3779 11.5174 14.9988 11.5174C15.6199 11.5174 16.1232 12.0223 16.1232 12.6446C16.1232 13.2675 15.6198 13.7723 14.9988 13.7723ZM19.4964 13.7723C18.8752 13.7723 18.3721 13.2675 18.3721 12.6446C18.3721 12.0221 18.8752 11.5174 19.4964 11.5174C20.1176 11.5174 20.6209 12.0223 20.6209 12.6446C20.6209 13.2675 20.1176 13.7723 19.4964 13.7723Z" fill="#E5E5E5"/>
</svg>
