<svg width="25" height="25" viewBox="0 0 25 25" fill="none" xmlns="http://www.w3.org/2000/svg">
<g clip-path="url(#clip0_1971_2383)">
<path d="M24.517 7.34165C24.517 7.34165 24.2827 5.68696 23.5608 4.9604C22.6467 4.00415 21.6249 3.99946 21.1561 3.94321C17.7999 3.69946 12.7608 3.69946 12.7608 3.69946H12.7514C12.7514 3.69946 7.71235 3.69946 4.3561 3.94321C3.88735 3.99946 2.86548 4.00415 1.95142 4.9604C1.22954 5.68696 0.999854 7.34165 0.999854 7.34165C0.999854 7.34165 0.756104 9.28696 0.756104 11.2276V13.0463C0.756104 14.987 0.995166 16.9323 0.995166 16.9323C0.995166 16.9323 1.22954 18.587 1.94673 19.3135C2.86079 20.2698 4.06079 20.237 4.59517 20.3401C6.51704 20.5229 12.7561 20.5792 12.7561 20.5792C12.7561 20.5792 17.7999 20.5698 21.1561 20.3307C21.6249 20.2745 22.6467 20.2698 23.5608 19.3135C24.2827 18.587 24.517 16.9323 24.517 16.9323C24.517 16.9323 24.7561 14.9916 24.7561 13.0463V11.2276C24.7561 9.28696 24.517 7.34165 24.517 7.34165ZM10.2764 15.2542V8.50884L16.7592 11.8932L10.2764 15.2542Z" fill="#E5E5E5"/>
</g>
<defs>
<clipPath id="clip0_1971_2383">
<rect width="24" height="24" fill="white" transform="translate(0.756104 0.141602)"/>
</clipPath>
</defs>
</svg>
