<svg width="34" height="37" viewBox="0 0 34 37" fill="none" xmlns="http://www.w3.org/2000/svg">
<path d="M7.83333 31.8623H5.33333C3.49238 31.8623 2 30.3699 2 28.529V5.19564C2 3.35469 3.49238 1.8623 5.33333 1.8623H28.6667C30.5076 1.8623 32 3.35469 32 5.19564V28.529C32 30.3699 30.5076 31.8623 28.6667 31.8623H26.1667M17 30.1956C19.7614 30.1956 22 27.9571 22 25.1956C22 22.4342 19.7614 20.1956 17 20.1956C14.2386 20.1956 12 22.4342 12 25.1956C12 27.9571 14.2386 30.1956 17 30.1956ZM17 30.1956L17.0357 30.1953L11.7145 35.5166L7.00041 30.8025L12.0328 25.7702M17 30.1956L22.3214 35.5166L27.0354 30.8025L22.0031 25.7702M12 8.52897H22M8.66667 14.3623H25.3333" stroke="white" stroke-width="2.5" stroke-linecap="round" stroke-linejoin="round"/>
</svg>
