<svg width="34" height="35" viewBox="0 0 34 35" fill="none" xmlns="http://www.w3.org/2000/svg">
<path d="M16.999 17.529H17.0157M22.8916 23.4216C15.0811 31.2321 6.11126 34.9256 2.85689 31.6712C-0.397478 28.4168 3.29598 19.447 11.1065 11.6365C18.917 3.826 27.8868 0.132542 31.1412 3.38691C34.3955 6.64128 30.7021 15.6111 22.8916 23.4216ZM22.8915 11.6362C30.702 19.4467 34.3955 28.4165 31.1411 31.6709C27.8867 34.9252 18.9169 31.2318 11.1064 23.4213C3.29592 15.6108 -0.397545 6.64098 2.85682 3.38661C6.11119 0.13224 15.081 3.8257 22.8915 11.6362ZM17.8324 17.529C17.8324 17.9893 17.4593 18.3624 16.999 18.3624C16.5388 18.3624 16.1657 17.9893 16.1657 17.529C16.1657 17.0688 16.5388 16.6957 16.999 16.6957C17.4593 16.6957 17.8324 17.0688 17.8324 17.529Z" stroke="white" stroke-width="2.5" stroke-linecap="round" stroke-linejoin="round"/>
</svg>
