<svg width="36" height="33" viewBox="0 0 36 33" fill="none" xmlns="http://www.w3.org/2000/svg">
<path d="M6.3335 26.5288C3.57207 26.5288 1.3335 24.2902 1.3335 21.5288V9.52881C1.3335 6.72855 1.3335 5.32841 1.87846 4.25886C2.35783 3.31805 3.12273 2.55314 4.06354 2.07378C5.1331 1.52881 6.53323 1.52881 9.3335 1.52881H26.6668C29.4671 1.52881 30.8672 1.52881 31.9368 2.07378C32.8776 2.55314 33.6425 3.31805 34.1219 4.25886C34.6668 5.32841 34.6668 6.72855 34.6668 9.52881V21.5288C34.6668 24.2902 32.4283 26.5288 29.6668 26.5288M12.5136 31.5288H23.4868C24.3949 31.5288 24.8489 31.5288 25.0781 31.3436C25.2773 31.1826 25.3914 30.939 25.3875 30.6829C25.3831 30.3883 25.0924 30.0395 24.5111 29.3419L19.0245 22.758C18.6727 22.3359 18.4968 22.1248 18.2862 22.0478C18.1015 21.9803 17.8988 21.9803 17.7141 22.0478C17.5035 22.1248 17.3276 22.3358 16.9759 22.758L11.4893 29.3419C10.9079 30.0395 10.6172 30.3883 10.6128 30.6829C10.6089 30.939 10.723 31.1826 10.9223 31.3436C11.1514 31.5288 11.6055 31.5288 12.5136 31.5288Z" stroke="white" stroke-width="2.5" stroke-linecap="round" stroke-linejoin="round"/>
</svg>
